<svg id="Layer_1" data-name="Layer 1" xmlns="http://www.w3.org/2000/svg" viewBox="0 0 75 75"><defs><style>.cls-1,.cls-2{fill:#191717;}.cls-1{fill-rule:evenodd;}</style></defs><title>all-icons</title><path class="cls-1" d="M37.5,8.33a30.37,30.37,0,0,0-9.6,59.18A1.53,1.53,0,0,0,30,66c0-.72,0-3.12,0-5.65-8.45,1.84-10.23-3.58-10.23-3.58-1.38-3.51-3.37-4.44-3.37-4.44-2.76-1.88.21-1.85,0.21-1.85a6.38,6.38,0,0,1,4.65,3.13C23.9,58.29,28.3,57,30,56.18A6.47,6.47,0,0,1,32,52.12c-6.74-.77-13.83-3.37-13.83-15A11.75,11.75,0,0,1,21.25,29a10.91,10.91,0,0,1,.29-8S24.1,20.11,29.9,24a28.79,28.79,0,0,1,15.21,0c5.8-3.93,8.34-3.11,8.34-3.11a10.9,10.9,0,0,1,.3,8,11.73,11.73,0,0,1,3.12,8.15c0,11.66-7.1,14.23-13.86,15,1.09,0.94,2.06,2.79,2.06,5.62,0,4.06,0,7.33,0,8.33,0,0.81.55,1.76,2.09,1.46A30.37,30.37,0,0,0,37.5,8.33Z"/><path class="cls-2" d="M18.64,51.93a0.46,0.46,0,1,1-.27-0.46,0.38,0.38,0,0,1,.27.46h0Zm-0.37-.28"/><path class="cls-2" d="M19.87,53.3a0.56,0.56,0,0,1-.71-0.77,0.47,0.47,0,0,1,.62.14,0.46,0.46,0,0,1,.09.63h0ZM19.58,53"/><path class="cls-2" d="M21.06,55a0.54,0.54,0,0,1-.68-0.26,0.53,0.53,0,0,1,0-.72,0.64,0.64,0,0,1,.67,1h0Zm0,0"/><path class="cls-2" d="M22.7,56.74a0.57,0.57,0,0,1-.78-0.12A0.48,0.48,0,1,1,22.54,56a0.57,0.57,0,0,1,.17.78h0Zm0,0"/><path class="cls-2" d="M25,57.72a0.7,0.7,0,0,1-1.26-.38,0.7,0.7,0,0,1,1.26.38h0Zm0,0"/><path class="cls-2" d="M27.45,57.9a0.7,0.7,0,0,1-1.31,0,0.58,0.58,0,0,1,.65-0.46,0.58,0.58,0,0,1,.66.44h0Zm0,0"/><path class="cls-2" d="M29.76,57.51A0.7,0.7,0,1,1,29,57.17a0.59,0.59,0,0,1,.73.33h0Zm0,0"/></svg>