<?xml version="1.0" encoding="utf-8"?>
<!-- Generator: Adobe Illustrator 19.2.1, SVG Export Plug-In . SVG Version: 6.00 Build 0)  -->
<svg version="1.1" id="Layer_1" xmlns="http://www.w3.org/2000/svg" xmlns:xlink="http://www.w3.org/1999/xlink" x="0px" y="0px"
	 viewBox="0 0 516 83" style="enable-background:new 0 0 516 83;" xml:space="preserve">
<style type="text/css">
	.st0{fill:#333333;}
</style>
<path class="st0" d="M58.7,54.5c-4.3-4.1-6.4-9.2-6.4-15.2c0-6.1,2.1-11.1,6.4-15.2C62.9,20,68.1,18,74.3,18s11.4,2,15.6,6.1
	s6.4,9.1,6.4,15.2c0,6-2.1,11.1-6.4,15.2s-9.5,6.2-15.6,6.2S63,58.7,58.7,54.5z M64.4,29c-2.7,2.7-4.1,6.1-4.1,10.3
	c0,4.1,1.4,7.6,4.1,10.4c2.7,2.8,6,4.1,9.8,4.1c3.9,0,7.2-1.4,9.9-4.1c2.7-2.7,4.1-6.2,4.1-10.4c0-4.1-1.4-7.6-4.1-10.3
	s-6-4.1-9.9-4.1C70.4,25,67.1,26.3,64.4,29z"/>
<path class="st0" d="M102.8,59.7V11.5c0-1.2-0.5-1.8-1.6-1.8h-3V2.9h7.7c1.8,0,3.1,0.4,3.9,1.2s1.2,2.1,1.2,4v13.3l-0.2,3.4h0.2
	c0.1-0.2,0.3-0.4,0.4-0.7c0.2-0.3,0.7-0.9,1.4-1.6c0.7-0.8,1.6-1.4,2.5-2s2.2-1.1,3.7-1.6c1.6-0.5,3.2-0.7,5-0.7
	c5.5,0,9.8,2,13.1,5.9c3.3,3.9,4.9,9,4.9,15.4c0,6.3-1.7,11.5-5.2,15.4c-3.5,4-8,6-13.4,6c-5.1,0-9.2-2-12-6l-0.7-1.1h-0.1
	c0.1,0.9,0.2,2,0.2,3.2v2.9C110.7,59.7,102.8,59.7,102.8,59.7z M110.8,39.5c0,3.9,1,7.2,3,10.1c2,2.8,4.8,4.3,8.5,4.3
	c3.3,0,6.1-1.3,8.3-3.9c2.2-2.6,3.4-6.1,3.4-10.6c0-4.4-1.1-7.8-3.2-10.5c-2.1-2.6-4.9-3.9-8.3-3.9c-3.3,0-6.1,1.2-8.3,3.6
	C111.9,31,110.8,34.6,110.8,39.5z"/>
<path class="st0" d="M48.1,61.4c-2.1,0-3.4-0.6-4-1.8L37.2,46c-0.6-1.2-1.4-2.1-2.4-2.6v-0.2c2.4-0.5,4.7-2.1,6.8-4.7
	c2.1-2.6,3.2-6,3.2-10.3c0-5.1-1.6-9.2-4.7-12.2s-7.2-4.5-12.2-4.5H3.3v6.9h5.2v49.9l0,0v3.1c0,1.2-0.5,1.8-1.6,1.8h-3v6.9h7.7
	c1.8,0,2.9-0.1,3.7-0.9c0.8-0.8,1.2-2.1,1.2-4v-6.9l0,0V45.7h7.4c1.6,0,2.8,0.2,3.5,0.6c0.7,0.4,1.4,1.2,2.1,2.5l7.7,15.3
	c0.9,1.8,1.9,2.9,2.9,3.5c1,0.5,2.7,0.8,5,0.8H49v-6.9C49.2,61.4,48.1,61.4,48.1,61.4z M27.1,38.8H16.6V18.4h10.6c3,0,5.4,0.9,7,2.7
	s2.5,4.2,2.5,7.4s-0.9,5.7-2.6,7.6C32.5,37.9,30.1,38.8,27.1,38.8z"/>
<path class="st0" d="M147.4,39.4c0-6.4,1.9-11.5,5.8-15.5c3.9-3.9,8.7-5.9,14.7-5.9c5.5,0,9.8,1.8,12.9,5.4s4.6,8.2,4.6,13.7
	l-0.2,3.2h-29.7c0.2,4.1,1.7,7.4,4.3,9.8c2.7,2.4,5.9,3.6,9.7,3.6c2.1,0,4.1-0.4,6.1-1.2s3.4-1.6,4.3-2.3l1.4-1.2l3.4,5.5
	c-0.4,0.4-1.1,1-1.9,1.7c-0.9,0.7-2.7,1.6-5.4,2.7c-2.7,1.1-5.5,1.7-8.4,1.7c-6.4,0-11.6-2-15.6-6.1
	C149.5,50.6,147.4,45.5,147.4,39.4z M155.8,34.6h21.6c-0.1-3.3-1.1-5.8-2.9-7.6c-1.8-1.8-4.1-2.7-6.7-2.7c-3.1,0-5.7,0.9-7.9,2.7
	C157.8,28.7,156.4,31.3,155.8,34.6z"/>
<path class="st0" d="M195.8,59.7V27.6c0-1.2-0.6-1.8-1.8-1.8h-3.3v-6.9h7.5c3.6,0,5.4,1.6,5.4,4.9v2.6l-0.2,2.9h0.2
	c1-3.2,2.7-5.8,5-7.8s4.9-3,7.9-3l2.1,0.2v7.7c-0.7,0-1.5,0-2.3,0c-2.5,0-4.8,0.9-6.9,2.6s-3.6,4-4.5,7c-0.6,2.1-1,4.5-1,7.3v16.5
	C203.9,59.7,195.8,59.7,195.8,59.7z"/>
<path class="st0" d="M227.3,45.1V25.9h-5.1V19h5.2V8.5h7.9V19h9.5v6.9h-9.5v18.3c0,1.9,0.3,3.5,0.9,4.8c0.6,1.3,1.4,2.2,2.3,2.8
	c1,0.5,1.9,0.9,2.7,1.1c0.9,0.2,1.7,0.3,2.7,0.3l1.9-0.2v6.9c-0.7,0.1-1.6,0.2-2.7,0.2c-1.2,0-2.4-0.1-3.6-0.2
	c-1.2-0.2-2.5-0.6-4.1-1.2c-1.5-0.6-2.9-1.5-4-2.5s-2.1-2.5-2.9-4.4C227.7,49.9,227.3,47.7,227.3,45.1z"/>
<path class="st0" d="M275,61.2l4.7-5.8c0.2,0.1,0.4,0.4,0.7,0.6c0.3,0.3,1,0.8,2,1.5s2,1.4,3,2.1c1,0.7,2.3,1.3,3.8,1.9
	c1.6,0.6,3.1,0.9,4.7,0.9c2.7,0,5.1-0.8,7-2.4s2.8-3.7,2.8-6.3c0-1.9-0.7-3.6-2-5.1s-3-2.8-4.9-3.8c-2-1-4.1-2.1-6.5-3.4
	c-2.4-1.3-4.6-2.4-6.7-3.5c-2.1-1.1-3.8-2.7-5.2-4.9s-2.1-4.7-2.1-7.6c0-4.2,1.7-7.8,5.1-10.6c3.4-2.9,7.7-4.3,13-4.3
	c2.5,0,4.9,0.3,7.4,0.9s4.7,1.8,6.8,3.4c2.1,1.7,3.1,3.7,3.1,6.1v4.7h-8.5v-2.7c0-1.5-0.9-2.8-2.7-3.9c-1.8-1-3.8-1.6-6.1-1.6
	c-3,0-5.4,0.7-7.3,2.2c-1.8,1.5-2.7,3.4-2.7,5.6c0,1.8,0.7,3.4,2,4.9c1.4,1.4,3.1,2.6,5.1,3.5c2.1,0.9,4.3,1.9,6.6,3.2
	s4.5,2.5,6.6,3.6c2.1,1.1,3.8,2.8,5.1,5.1c1.3,2.3,1.9,4.9,1.9,7.9c0,4.4-1.6,8.2-4.9,11.3c-3.3,3.1-7.6,4.6-13.1,4.6
	c-2.2,0-4.4-0.3-6.5-0.9c-2.1-0.6-3.8-1.3-5.2-2.2c-1.3-0.9-2.6-1.7-3.8-2.5c-1.2-0.8-2-1.4-2.5-1.8L275,61.2z"/>
<path class="st0" d="M321.7,59.7V11.5c0-1.2-0.6-1.8-1.7-1.8h-3.1V2.9h7.7c1.9,0,3.2,0.3,4,1s1.2,1.9,1.2,3.6v26.1h3.6
	c1.9,0,3.3-0.5,4.2-1.4l9.5-13.3h8.1l-10.9,14.9c-1,1.7-1.8,2.8-2.4,3.2v0.2c0.9,0.3,1.7,1.4,2.6,3.2l6.1,11
	c0.5,0.9,1.7,1.4,3.5,1.4h2.5v6.9H351c-1.9,0-3.3-0.2-4.2-0.7s-1.8-1.5-2.6-3.1l-7.4-13.7c-0.6-1.1-1.9-1.7-3.9-1.7h-3v19.2H321.7
	L321.7,59.7z"/>
<path class="st0" d="M371.7,59.7L361,27.3c-0.3-0.9-1.2-1.4-2.5-1.4h-1.1V19h5c2,0,3.4,0.3,4.3,0.9c0.9,0.6,1.6,1.7,2.2,3.3
	l7.2,24.2l0.7,4.6h0.1c0.2-1.5,0.5-3,0.9-4.4l8.8-28.4h7.4l8.8,28.4l0.7,4.5h0.1c0.1-1.6,0.3-3.1,0.6-4.6l7.2-24.2
	c0.6-1.6,1.3-2.8,2.3-3.3c0.9-0.6,2.4-0.9,4.3-0.9h4.9V26h-1.1c-1.3,0-2.2,0.5-2.5,1.4l-10.7,32.4h-8.8l-8.4-26.2l-1.3-4.2h-0.2
	c-0.4,1.5-0.8,2.8-1.3,4.1l-8.3,26.2H371.7z"/>
<path class="st0" d="M431,54.4V27.7c0-1.2-0.6-1.7-1.7-1.7h-3.1v-6.9h7.7c1.8,0,3.1,0.4,3.9,1.3c0.8,0.8,1.2,2.2,1.2,4.1v26.7
	c0,1.2,0.6,1.7,1.7,1.7h3.1v6.9h-7.6c-1.8,0-3.1-0.4-3.9-1.3C431.4,57.7,431,56.3,431,54.4z M431.1,11V2.9h7V11H431.1z"/>
<path class="st0" d="M448.9,48.2c0-2.1,0.4-3.9,1.3-5.5c0.9-1.6,2.1-2.9,3.6-3.8s3.1-1.7,4.8-2.3s3.5-1.1,5.6-1.4
	c2-0.3,3.7-0.5,5.1-0.6s2.8-0.1,4.3-0.1h1.8v-0.4c0-3.5-0.7-6-2.1-7.5c-1.4-1.5-3.7-2.2-6.9-2.2c-1.5,0-3,0.2-4.4,0.7
	c-1.5,0.5-2.2,1.3-2.2,2.5v2.3h-8.1v-4c0-1.6,0.5-2.9,1.6-4s2.5-1.9,4.3-2.4c1.7-0.5,3.3-0.8,4.7-1s2.8-0.3,4.1-0.3
	c6.3,0,10.7,1.4,13.2,4.2s3.8,6.7,3.8,11.7v17.1c0,1.2,0.6,1.7,1.7,1.7h3.1v6.9h-7.3c-3.4,0-5.1-1.6-5.1-4.8l0.2-2.5h-0.2
	c-0.1,0.2-0.2,0.4-0.4,0.7s-0.6,0.9-1.3,1.9s-1.5,1.9-2.4,2.6c-0.9,0.8-2.1,1.5-3.7,2.1c-1.5,0.6-3.2,1-5,1c-3.8,0-7.1-1.1-9.8-3.3
	C450.2,55.1,448.9,52.1,448.9,48.2z M458.5,43.5c-1.1,1.1-1.6,2.5-1.6,4.3c0,1.7,0.7,3.2,2,4.3s3.2,1.7,5.6,1.7
	c3.1,0,5.7-1.3,7.7-3.9c2.1-2.6,3.1-5.4,3.1-8.5v-1.3h-2c-2,0-3.7,0.1-5.2,0.2c-1.5,0.1-3.2,0.4-5.1,0.9
	C461.1,41.6,459.6,42.4,458.5,43.5z"/>
<path class="st0" d="M494.7,45.1V25.9h-5.1V19h5.2V8.5h7.9V19h9.5v6.9h-9.5v18.3c0,1.9,0.3,3.5,0.9,4.8c0.6,1.3,1.4,2.2,2.3,2.8
	c1,0.5,1.9,0.9,2.7,1.1c0.9,0.2,1.7,0.3,2.7,0.3l1.9-0.2v6.9c-0.7,0.1-1.6,0.2-2.7,0.2c-1.2,0-2.4-0.1-3.6-0.2
	c-1.2-0.2-2.5-0.6-4.1-1.2c-1.5-0.6-2.9-1.5-4-2.5s-2.1-2.5-2.9-4.4C495.1,49.9,494.7,47.7,494.7,45.1z"/>
</svg>
