<?xml version="1.0" encoding="utf-8"?>
<!-- Generator: Adobe Illustrator 18.1.1, SVG Export Plug-In . SVG Version: 6.00 Build 0)  -->
<!DOCTYPE svg PUBLIC "-//W3C//DTD SVG 1.1//EN" "http://www.w3.org/Graphics/SVG/1.1/DTD/svg11.dtd">
<svg version="1.1" id="Layer_1" xmlns="http://www.w3.org/2000/svg" xmlns:xlink="http://www.w3.org/1999/xlink" x="0px" y="0px"
	 viewBox="251 -37 516 83" enable-background="new 251 -37 516 83" xml:space="preserve">
<path fill="#FFFFFF" d="M306.4,14.6c-4.3-4.1-6.4-9.2-6.4-15.2c0-6.1,2.1-11.1,6.4-15.2c4.2-4.1,9.4-6.1,15.6-6.1
	c6.2,0,11.4,2,15.6,6.1S344-6.7,344-0.6c0,6-2.1,11.1-6.4,15.2c-4.3,4.1-9.5,6.2-15.6,6.2C315.9,20.8,310.7,18.8,306.4,14.6z
	 M312.1-10.9c-2.7,2.7-4.1,6.1-4.1,10.3c0,4.1,1.4,7.6,4.1,10.4c2.7,2.8,6,4.1,9.8,4.1c3.9,0,7.2-1.4,9.9-4.1
	c2.7-2.7,4.1-6.2,4.1-10.4c0-4.1-1.4-7.6-4.1-10.3c-2.7-2.7-6-4.1-9.9-4.1C318.1-14.9,314.8-13.6,312.1-10.9z"/>
<path fill="#FFFFFF" d="M350.5,19.8v-48.2c0-1.2-0.5-1.8-1.6-1.8h-3V-37h7.7c1.8,0,3.1,0.4,3.9,1.2c0.8,0.8,1.2,2.1,1.2,4v13.3
	l-0.2,3.4h0.2c0.1-0.2,0.3-0.4,0.4-0.7c0.2-0.3,0.7-0.9,1.4-1.6c0.7-0.8,1.6-1.4,2.5-2c0.9-0.6,2.2-1.1,3.7-1.6
	c1.6-0.5,3.2-0.7,5-0.7c5.5,0,9.8,2,13.1,5.9c3.3,3.9,4.9,9,4.9,15.4c0,6.3-1.7,11.5-5.2,15.4c-3.5,4-8,6-13.4,6c-5.1,0-9.2-2-12-6
	l-0.7-1.1h-0.1c0.1,0.9,0.2,2,0.2,3.2v2.9C358.4,19.8,350.5,19.8,350.5,19.8z M358.5-0.4c0,3.9,1,7.2,3,10.1c2,2.8,4.8,4.3,8.5,4.3
	c3.3,0,6.1-1.3,8.3-3.9c2.2-2.6,3.4-6.1,3.4-10.6c0-4.4-1.1-7.8-3.2-10.5c-2.1-2.6-4.9-3.9-8.3-3.9c-3.3,0-6.1,1.2-8.3,3.6
	C359.6-8.9,358.5-5.3,358.5-0.4z"/>
<path fill="#FFFFFF" d="M295.8,21.5c-2.1,0-3.4-0.6-4-1.8l-6.9-13.6c-0.6-1.2-1.4-2.1-2.4-2.6V3.3c2.4-0.5,4.7-2.1,6.8-4.7
	c2.1-2.6,3.2-6,3.2-10.3c0-5.1-1.6-9.2-4.7-12.2c-3.1-3-7.2-4.5-12.2-4.5H251v6.9h5.2v49.9h0v3.1c0,1.2-0.5,1.8-1.6,1.8h-3v6.9h7.7
	c1.8,0,2.9-0.1,3.7-0.9c0.8-0.8,1.2-2.1,1.2-4v-6.9h0V5.8h7.4c1.6,0,2.8,0.2,3.5,0.6c0.7,0.4,1.4,1.2,2.1,2.5l7.7,15.3
	c0.9,1.8,1.9,2.9,2.9,3.5c1,0.5,2.7,0.8,5,0.8h3.9v-6.9C296.9,21.5,295.8,21.5,295.8,21.5z M274.8-1.1h-10.5v-20.4h10.6
	c3,0,5.4,0.9,7,2.7s2.5,4.2,2.5,7.4c0,3.2-0.9,5.7-2.6,7.6C280.2-2,277.8-1.1,274.8-1.1z"/>
<path fill="#FFFFFF" d="M395.1-0.5c0-6.4,1.9-11.5,5.8-15.5c3.9-3.9,8.7-5.9,14.7-5.9c5.5,0,9.8,1.8,12.9,5.4
	c3.1,3.6,4.6,8.2,4.6,13.7l-0.2,3.2h-29.7c0.2,4.1,1.7,7.4,4.3,9.8c2.7,2.4,5.9,3.6,9.7,3.6c2.1,0,4.1-0.4,6.1-1.2
	c2-0.8,3.4-1.6,4.3-2.3l1.4-1.2l3.4,5.5c-0.4,0.4-1.1,1-1.9,1.7c-0.9,0.7-2.7,1.6-5.4,2.7c-2.7,1.1-5.5,1.7-8.4,1.7
	c-6.4,0-11.6-2-15.6-6.1C397.2,10.7,395.1,5.6,395.1-0.5z M403.5-5.3h21.6c-0.1-3.3-1.1-5.8-2.9-7.6c-1.8-1.8-4.1-2.7-6.7-2.7
	c-3.1,0-5.7,0.9-7.9,2.7C405.5-11.2,404.1-8.6,403.5-5.3z"/>
<path fill="#FFFFFF" d="M443.5,19.8v-32.1c0-1.2-0.6-1.8-1.8-1.8h-3.3v-6.9h7.5c3.6,0,5.4,1.6,5.4,4.9l0,2.6l-0.2,2.9h0.2
	c1-3.2,2.7-5.8,5-7.8c2.3-2,4.9-3,7.9-3l2.1,0.2v7.7c-0.7,0-1.5,0-2.3,0c-2.5,0-4.8,0.9-6.9,2.6c-2.1,1.7-3.6,4-4.5,7
	c-0.6,2.1-1,4.5-1,7.3v16.5C451.6,19.8,443.5,19.8,443.5,19.8z"/>
<path fill="#FFFFFF" d="M475,5.2V-14h-5.1v-6.9h5.2v-10.5h7.9v10.5h9.5v6.9h-9.5V4.3c0,1.9,0.3,3.5,0.9,4.8c0.6,1.3,1.4,2.2,2.3,2.8
	c1,0.5,1.9,0.9,2.7,1.1c0.9,0.2,1.7,0.3,2.7,0.3l1.9-0.2V20c-0.7,0.1-1.6,0.2-2.7,0.2c-1.2,0-2.4-0.1-3.6-0.2
	c-1.2-0.2-2.5-0.6-4.1-1.2c-1.5-0.6-2.9-1.5-4-2.5c-1.1-1-2.1-2.5-2.9-4.4C475.4,10,475,7.8,475,5.2z"/>
<path fill="#FFFFFF" d="M522.7,21.3l4.7-5.8c0.2,0.1,0.4,0.4,0.7,0.6c0.3,0.3,1,0.8,2,1.5c1,0.7,2,1.4,3,2.1c1,0.7,2.3,1.3,3.8,1.9
	c1.6,0.6,3.1,0.9,4.7,0.9c2.7,0,5.1-0.8,7-2.4c1.9-1.6,2.8-3.7,2.8-6.3c0-1.9-0.7-3.6-2-5.1c-1.3-1.5-3-2.8-4.9-3.8
	c-2-1-4.1-2.1-6.5-3.4s-4.6-2.4-6.7-3.5c-2.1-1.1-3.8-2.7-5.2-4.9c-1.4-2.2-2.1-4.7-2.1-7.6c0-4.2,1.7-7.8,5.1-10.6
	c3.4-2.9,7.7-4.3,13-4.3c2.5,0,4.9,0.3,7.4,0.9c2.5,0.6,4.7,1.8,6.8,3.4c2.1,1.7,3.1,3.7,3.1,6.1v4.7h-8.5V-17
	c0-1.5-0.9-2.8-2.7-3.9c-1.8-1-3.8-1.6-6.1-1.6c-3,0-5.4,0.7-7.3,2.2c-1.8,1.5-2.7,3.4-2.7,5.6c0,1.8,0.7,3.4,2,4.9
	c1.4,1.4,3.1,2.6,5.1,3.5c2.1,0.9,4.3,1.9,6.6,3.2c2.3,1.3,4.5,2.5,6.6,3.6c2.1,1.1,3.8,2.8,5.1,5.1c1.3,2.3,1.9,4.9,1.9,7.9
	c0,4.4-1.6,8.2-4.9,11.3c-3.3,3.1-7.6,4.6-13.1,4.6c-2.2,0-4.4-0.3-6.5-0.9c-2.1-0.6-3.8-1.3-5.2-2.2c-1.3-0.9-2.6-1.7-3.8-2.5
	c-1.2-0.8-2-1.4-2.5-1.8L522.7,21.3z"/>
<path fill="#FFFFFF" d="M569.4,19.8v-48.2c0-1.2-0.6-1.8-1.7-1.8h-3.1V-37h7.7c1.9,0,3.2,0.3,4,1c0.8,0.7,1.2,1.9,1.2,3.6v26.1h3.6
	c1.9,0,3.3-0.5,4.2-1.4l9.5-13.3h8.1L592-6.1c-1,1.7-1.8,2.8-2.4,3.2v0.2c0.9,0.3,1.7,1.4,2.6,3.2l6.1,11c0.5,0.9,1.7,1.4,3.5,1.4
	h2.5v6.9h-5.6c-1.9,0-3.3-0.2-4.2-0.7c-0.9-0.5-1.8-1.5-2.6-3.1l-7.4-13.7c-0.6-1.1-1.9-1.7-3.9-1.7h-3v19.2L569.4,19.8L569.4,19.8z
	"/>
<path fill="#FFFFFF" d="M619.4,19.8l-10.7-32.4c-0.3-0.9-1.2-1.4-2.5-1.4h-1.1v-6.9h5c2,0,3.4,0.3,4.3,0.9c0.9,0.6,1.6,1.7,2.2,3.3
	l7.2,24.2l0.7,4.6h0.1c0.2-1.5,0.5-3,0.9-4.4l8.8-28.4h7.4l8.8,28.4l0.7,4.5h0.1c0.1-1.6,0.3-3.1,0.6-4.6l7.2-24.2
	c0.6-1.6,1.3-2.8,2.3-3.3c0.9-0.6,2.4-0.9,4.3-0.9h4.9v6.9h-1.1c-1.3,0-2.2,0.5-2.5,1.4l-10.7,32.4h-8.8l-8.4-26.2l-1.3-4.2h-0.2
	c-0.4,1.5-0.8,2.8-1.3,4.1L628,19.8H619.4z"/>
<path fill="#FFFFFF" d="M678.7,14.5v-26.7c0-1.2-0.6-1.7-1.7-1.7h-3.1v-6.9h7.7c1.8,0,3.1,0.4,3.9,1.3c0.8,0.8,1.2,2.2,1.2,4.1v26.7
	c0,1.2,0.6,1.7,1.7,1.7h3.1v6.9h-7.6c-1.8,0-3.1-0.4-3.9-1.3C679.1,17.8,678.7,16.4,678.7,14.5z M678.8-28.9V-37h7v8.1H678.8z"/>
<path fill="#FFFFFF" d="M696.6,8.3c0-2.1,0.4-3.9,1.3-5.5c0.9-1.6,2.1-2.9,3.6-3.8c1.5-0.9,3.1-1.7,4.8-2.3c1.7-0.6,3.5-1.1,5.6-1.4
	c2-0.3,3.7-0.5,5.1-0.6s2.8-0.1,4.3-0.1h1.8v-0.4c0-3.5-0.7-6-2.1-7.5c-1.4-1.5-3.7-2.2-6.9-2.2c-1.5,0-3,0.2-4.4,0.7
	c-1.5,0.5-2.2,1.3-2.2,2.5v2.3h-8.1v-4c0-1.6,0.5-2.9,1.6-4c1.1-1.1,2.5-1.9,4.3-2.4c1.7-0.5,3.3-0.8,4.7-1c1.4-0.2,2.8-0.3,4.1-0.3
	c6.3,0,10.7,1.4,13.2,4.2c2.5,2.8,3.8,6.7,3.8,11.7v17.1c0,1.2,0.6,1.7,1.7,1.7h3.1v6.9h-7.3c-3.4,0-5.1-1.6-5.1-4.8l0.2-2.5h-0.2
	c-0.1,0.2-0.2,0.4-0.4,0.7c-0.2,0.3-0.6,0.9-1.3,1.9c-0.7,1-1.5,1.9-2.4,2.6c-0.9,0.8-2.1,1.5-3.7,2.1c-1.5,0.6-3.2,1-5,1
	c-3.8,0-7.1-1.1-9.8-3.3C697.9,15.2,696.6,12.2,696.6,8.3z M706.2,3.6c-1.1,1.1-1.6,2.5-1.6,4.3c0,1.7,0.7,3.2,2,4.3
	c1.3,1.1,3.2,1.7,5.6,1.7c3.1,0,5.7-1.3,7.7-3.9c2.1-2.6,3.1-5.4,3.1-8.5V0.2h-2c-2,0-3.7,0.1-5.2,0.2c-1.5,0.1-3.2,0.4-5.1,0.9
	C708.8,1.7,707.3,2.5,706.2,3.6z"/>
<path fill="#FFFFFF" d="M742.4,5.2V-14h-5.1v-6.9h5.2v-10.5h7.9v10.5h9.5v6.9h-9.5V4.3c0,1.9,0.3,3.5,0.9,4.8
	c0.6,1.3,1.4,2.2,2.3,2.8c1,0.5,1.9,0.9,2.7,1.1c0.9,0.2,1.7,0.3,2.7,0.3l1.9-0.2V20c-0.7,0.1-1.6,0.2-2.7,0.2
	c-1.2,0-2.4-0.1-3.6-0.2c-1.2-0.2-2.5-0.6-4.1-1.2c-1.5-0.6-2.9-1.5-4-2.5c-1.1-1-2.1-2.5-2.9-4.4C742.8,10,742.4,7.8,742.4,5.2z"/>
</svg>
