<?xml version="1.0" encoding="utf-8"?>
<!-- Generator: Adobe Illustrator 19.2.1, SVG Export Plug-In . SVG Version: 6.00 Build 0)  -->
<svg version="1.1" id="Layer_1" xmlns="http://www.w3.org/2000/svg" xmlns:xlink="http://www.w3.org/1999/xlink" x="0px" y="0px"
	 viewBox="0 0 75 75" style="enable-background:new 0 0 75 75;" xml:space="preserve">
<style type="text/css">
	.st0{fill:#FFFFFF;}
	.st1{fill-rule:evenodd;clip-rule:evenodd;fill:#191717;}
	.st2{fill:#191717;}
</style>
<g id="layer1" transform="translate(-539.17946,-568.85777)">
	<path id="path3611" d="M651.9,633.4c25.2,0,39-20.9,39-39c0-0.6,0-1.2,0-1.8c2.7-1.9,5-4.3,6.8-7.1c-2.5,1.1-5.1,1.8-7.9,2.2
		c2.8-1.7,5-4.4,6-7.6c-2.6,1.6-5.6,2.7-8.7,3.3c-2.5-2.7-6.1-4.3-10-4.3c-7.6,0-13.7,6.1-13.7,13.7c0,1.1,0.1,2.1,0.4,3.1
		c-11.4-0.6-21.5-6-28.2-14.3c-1.2,2-1.9,4.4-1.9,6.9c0,4.8,2.4,8.9,6.1,11.4c-2.2-0.1-4.4-0.7-6.2-1.7c0,0.1,0,0.1,0,0.2
		c0,6.6,4.7,12.2,11,13.4c-1.2,0.3-2.4,0.5-3.6,0.5c-0.9,0-1.7-0.1-2.6-0.2c1.7,5.4,6.8,9.4,12.8,9.5c-4.7,3.7-10.6,5.9-17,5.9
		c-1.1,0-2.2-0.1-3.3-0.2C637,631.2,644.2,633.4,651.9,633.4"/>
</g>
<g id="layer1_1_" transform="translate(-200.55198,-393.96227)" inkscape:groupmode="layer" inkscape:label="Layer 1">
	<g id="g3019" transform="matrix(1.018827,0,0,-1.018827,170.5996,498.03288)">
		<path id="path14" inkscape:connector-curvature="0" d="M35.7,91.1c0,2.4,2,4.4,4.5,4.4H92c2.5,0,4.5-2,4.5-4.4V38.7
			c0-2.4-2-4.4-4.5-4.4H40.2c-2.5,0-4.5,2-4.5,4.4V91.1z"/>
		<path id="path28" inkscape:connector-curvature="0" class="st0" d="M54.1,44.3v27.7h-9.2V44.3H54.1z M49.5,75.7
			c3.2,0,5.2,2.1,5.2,4.8c-0.1,2.7-2,4.8-5.1,4.8c-3.1,0-5.2-2.1-5.2-4.8C44.4,77.8,46.4,75.7,49.5,75.7L49.5,75.7L49.5,75.7z"/>
		<path id="path30" inkscape:connector-curvature="0" class="st0" d="M59.2,44.3h9.2v15.4c0,0.8,0.1,1.7,0.3,2.2
			c0.7,1.7,2.2,3.4,4.7,3.4c3.3,0,4.7-2.5,4.7-6.3V44.3h9.2v15.9c0,8.5-4.5,12.4-10.6,12.4c-5,0-7.1-2.8-8.3-4.7h0.1v4h-9.2
			C59.3,69.3,59.2,44.3,59.2,44.3L59.2,44.3z"/>
	</g>
</g>
<g>
	<path class="st1" d="M211.3,8.3c-16.8,0-30.4,13.6-30.4,30.4c0,13.4,8.7,24.8,20.8,28.8c1.5,0.3,2.1-0.7,2.1-1.5c0-0.7,0-3.1,0-5.7
		c-8.4,1.8-10.2-3.6-10.2-3.6c-1.4-3.5-3.4-4.4-3.4-4.4c-2.8-1.9,0.2-1.8,0.2-1.8c3,0.2,4.7,3.1,4.7,3.1c2.7,4.6,7.1,3.3,8.8,2.5
		c0.3-2,1.1-3.3,1.9-4.1c-6.7-0.8-13.8-3.4-13.8-15c0-3.3,1.2-6,3.1-8.2c-0.3-0.8-1.4-3.9,0.3-8c0,0,2.5-0.8,8.4,3.1
		c2.4-0.7,5-1,7.6-1c2.6,0,5.2,0.3,7.6,1c5.8-3.9,8.3-3.1,8.3-3.1c1.7,4.2,0.6,7.3,0.3,8c1.9,2.1,3.1,4.8,3.1,8.2
		c0,11.7-7.1,14.2-13.9,15c1.1,0.9,2.1,2.8,2.1,5.6c0,4.1,0,7.3,0,8.3c0,0.8,0.5,1.8,2.1,1.5c12.1-4,20.7-15.4,20.7-28.8
		C241.7,21.9,228.1,8.3,211.3,8.3z"/>
	<path class="st2" d="M192.5,51.9c-0.1,0.2-0.3,0.2-0.5,0.1c-0.2-0.1-0.3-0.3-0.3-0.5c0.1-0.2,0.3-0.2,0.5-0.1
		C192.4,51.6,192.5,51.8,192.5,51.9L192.5,51.9z M192.1,51.7"/>
	<path class="st2" d="M193.7,53.3c-0.1,0.1-0.4,0.1-0.6-0.1c-0.2-0.2-0.2-0.5-0.1-0.6c0.1-0.1,0.4-0.1,0.6,0.1
		C193.8,52.9,193.8,53.2,193.7,53.3L193.7,53.3z M193.4,53"/>
	<path class="st2" d="M194.9,55c-0.2,0.1-0.5,0-0.7-0.3c-0.2-0.3-0.2-0.6,0-0.7c0.2-0.1,0.5,0,0.7,0.3
		C195.1,54.6,195.1,54.9,194.9,55L194.9,55z M194.9,55"/>
	<path class="st2" d="M196.5,56.7c-0.2,0.2-0.5,0.1-0.8-0.1c-0.3-0.2-0.3-0.6-0.2-0.8c0.2-0.2,0.5-0.1,0.8,0.1
		C196.6,56.2,196.7,56.6,196.5,56.7L196.5,56.7z M196.5,56.7"/>
	<path class="st2" d="M198.8,57.7c-0.1,0.2-0.4,0.3-0.8,0.2c-0.3-0.1-0.6-0.4-0.5-0.6c0.1-0.2,0.4-0.4,0.8-0.2
		C198.6,57.2,198.9,57.5,198.8,57.7L198.8,57.7z M198.8,57.7"/>
	<path class="st2" d="M201.3,57.9c0,0.3-0.3,0.5-0.6,0.5c-0.4,0-0.7-0.2-0.7-0.4c0-0.3,0.3-0.5,0.6-0.5
		C201,57.5,201.3,57.7,201.3,57.9L201.3,57.9z M201.3,57.9"/>
	<path class="st2" d="M203.6,57.5c0,0.2-0.2,0.5-0.6,0.6c-0.4,0.1-0.7-0.1-0.7-0.3c0-0.3,0.2-0.5,0.6-0.6
		C203.2,57.1,203.5,57.3,203.6,57.5L203.6,57.5z M203.6,57.5"/>
</g>
</svg>
