<svg id="Layer_1" xmlns="http://www.w3.org/2000/svg" viewBox="0 0 516 83"><path class="st0" d="M58.7 54.5c-4.3-4.1-6.4-9.2-6.4-15.2 0-6.1 2.1-11.1 6.4-15.2C62.9 20 68.1 18 74.3 18s11.4 2 15.6 6.1 6.4 9.1 6.4 15.2c0 6-2.1 11.1-6.4 15.2s-9.5 6.2-15.6 6.2-11.3-2-15.6-6.2zM64.4 29c-2.7 2.7-4.1 6.1-4.1 10.3 0 4.1 1.4 7.6 4.1 10.4 2.7 2.8 6 4.1 9.8 4.1 3.9 0 7.2-1.4 9.9-4.1 2.7-2.7 4.1-6.2 4.1-10.4 0-4.1-1.4-7.6-4.1-10.3s-6-4.1-9.9-4.1c-3.8.1-7.1 1.4-9.8 4.1zM102.8 59.7V11.5c0-1.2-.5-1.8-1.6-1.8h-3V2.9h7.7c1.8 0 3.1.4 3.9 1.2s1.2 2.1 1.2 4v13.3l-.2 3.4h.2c.1-.2.3-.4.4-.7.2-.3.7-.9 1.4-1.6.7-.8 1.6-1.4 2.5-2s2.2-1.1 3.7-1.6c1.6-.5 3.2-.7 5-.7 5.5 0 9.8 2 13.1 5.9 3.3 3.9 4.9 9 4.9 15.4 0 6.3-1.7 11.5-5.2 15.4-3.5 4-8 6-13.4 6-5.1 0-9.2-2-12-6l-.7-1.1h-.1c.1.9.2 2 .2 3.2v2.9c-.1-.2-8-.2-8-.2zm8-20.2c0 3.9 1 7.2 3 10.1 2 2.8 4.8 4.3 8.5 4.3 3.3 0 6.1-1.3 8.3-3.9 2.2-2.6 3.4-6.1 3.4-10.6 0-4.4-1.1-7.8-3.2-10.5-2.1-2.6-4.9-3.9-8.3-3.9-3.3 0-6.1 1.2-8.3 3.6-2.3 2.4-3.4 6-3.4 10.9zM48.1 61.4c-2.1 0-3.4-.6-4-1.8L37.2 46c-.6-1.2-1.4-2.1-2.4-2.6v-.2c2.4-.5 4.7-2.1 6.8-4.7 2.1-2.6 3.2-6 3.2-10.3 0-5.1-1.6-9.2-4.7-12.2s-7.2-4.5-12.2-4.5H3.3v6.9h5.2v53c0 1.2-.5 1.8-1.6 1.8h-3v6.9h7.7c1.8 0 2.9-.1 3.7-.9.8-.8 1.2-2.1 1.2-4V45.7h7.4c1.6 0 2.8.2 3.5.6.7.4 1.4 1.2 2.1 2.5l7.7 15.3c.9 1.8 1.9 2.9 2.9 3.5 1 .5 2.7.8 5 .8H49v-6.9c.2-.1-.9-.1-.9-.1zm-21-22.6H16.6V18.4h10.6c3 0 5.4.9 7 2.7s2.5 4.2 2.5 7.4-.9 5.7-2.6 7.6c-1.6 1.8-4 2.7-7 2.7zM147.4 39.4c0-6.4 1.9-11.5 5.8-15.5 3.9-3.9 8.7-5.9 14.7-5.9 5.5 0 9.8 1.8 12.9 5.4s4.6 8.2 4.6 13.7l-.2 3.2h-29.7c.2 4.1 1.7 7.4 4.3 9.8 2.7 2.4 5.9 3.6 9.7 3.6 2.1 0 4.1-.4 6.1-1.2s3.4-1.6 4.3-2.3l1.4-1.2 3.4 5.5c-.4.4-1.1 1-1.9 1.7-.9.7-2.7 1.6-5.4 2.7s-5.5 1.7-8.4 1.7c-6.4 0-11.6-2-15.6-6.1-3.9-3.9-6-9-6-15.1zm8.4-4.8h21.6c-.1-3.3-1.1-5.8-2.9-7.6-1.8-1.8-4.1-2.7-6.7-2.7-3.1 0-5.7.9-7.9 2.7-2.1 1.7-3.5 4.3-4.1 7.6zM195.8 59.7V27.6c0-1.2-.6-1.8-1.8-1.8h-3.3v-6.9h7.5c3.6 0 5.4 1.6 5.4 4.9v2.6l-.2 2.9h.2c1-3.2 2.7-5.8 5-7.8s4.9-3 7.9-3l2.1.2v7.7h-2.3c-2.5 0-4.8.9-6.9 2.6s-3.6 4-4.5 7c-.6 2.1-1 4.5-1 7.3v16.5c0-.1-8.1-.1-8.1-.1zM227.3 45.1V25.9h-5.1V19h5.2V8.5h7.9V19h9.5v6.9h-9.5v18.3c0 1.9.3 3.5.9 4.8.6 1.3 1.4 2.2 2.3 2.8 1 .5 1.9.9 2.7 1.1.9.2 1.7.3 2.7.3l1.9-.2v6.9c-.7.1-1.6.2-2.7.2-1.2 0-2.4-.1-3.6-.2-1.2-.2-2.5-.6-4.1-1.2-1.5-.6-2.9-1.5-4-2.5s-2.1-2.5-2.9-4.4c-.8-1.9-1.2-4.1-1.2-6.7zM275 61.2l4.7-5.8c.2.1.4.4.7.6.3.3 1 .8 2 1.5l3 2.1c1 .7 2.3 1.3 3.8 1.9 1.6.6 3.1.9 4.7.9 2.7 0 5.1-.8 7-2.4s2.8-3.7 2.8-6.3c0-1.9-.7-3.6-2-5.1s-3-2.8-4.9-3.8c-2-1-4.1-2.1-6.5-3.4-2.4-1.3-4.6-2.4-6.7-3.5-2.1-1.1-3.8-2.7-5.2-4.9s-2.1-4.7-2.1-7.6c0-4.2 1.7-7.8 5.1-10.6 3.4-2.9 7.7-4.3 13-4.3 2.5 0 4.9.3 7.4.9s4.7 1.8 6.8 3.4c2.1 1.7 3.1 3.7 3.1 6.1v4.7h-8.5v-2.7c0-1.5-.9-2.8-2.7-3.9-1.8-1-3.8-1.6-6.1-1.6-3 0-5.4.7-7.3 2.2-1.8 1.5-2.7 3.4-2.7 5.6 0 1.8.7 3.4 2 4.9 1.4 1.4 3.1 2.6 5.1 3.5 2.1.9 4.3 1.9 6.6 3.2s4.5 2.5 6.6 3.6c2.1 1.1 3.8 2.8 5.1 5.1 1.3 2.3 1.9 4.9 1.9 7.9 0 4.4-1.6 8.2-4.9 11.3-3.3 3.1-7.6 4.6-13.1 4.6-2.2 0-4.4-.3-6.5-.9-2.1-.6-3.8-1.3-5.2-2.2-1.3-.9-2.6-1.7-3.8-2.5-1.2-.8-2-1.4-2.5-1.8l-.7-.7zM321.7 59.7V11.5c0-1.2-.6-1.8-1.7-1.8h-3.1V2.9h7.7c1.9 0 3.2.3 4 1s1.2 1.9 1.2 3.6v26.1h3.6c1.9 0 3.3-.5 4.2-1.4l9.5-13.3h8.1l-10.9 14.9c-1 1.7-1.8 2.8-2.4 3.2v.2c.9.3 1.7 1.4 2.6 3.2l6.1 11c.5.9 1.7 1.4 3.5 1.4h2.5v6.9H351c-1.9 0-3.3-.2-4.2-.7s-1.8-1.5-2.6-3.1l-7.4-13.7c-.6-1.1-1.9-1.7-3.9-1.7h-3v19.2h-8.2zM371.7 59.7L361 27.3c-.3-.9-1.2-1.4-2.5-1.4h-1.1V19h5c2 0 3.4.3 4.3.9.9.6 1.6 1.7 2.2 3.3l7.2 24.2.7 4.6h.1c.2-1.5.5-3 .9-4.4l8.8-28.4h7.4l8.8 28.4.7 4.5h.1c.1-1.6.3-3.1.6-4.6l7.2-24.2c.6-1.6 1.3-2.8 2.3-3.3.9-.6 2.4-.9 4.3-.9h4.9V26h-1.1c-1.3 0-2.2.5-2.5 1.4l-10.7 32.4h-8.8l-8.4-26.2-1.3-4.2h-.2c-.4 1.5-.8 2.8-1.3 4.1l-8.3 26.2h-8.6zM431 54.4V27.7c0-1.2-.6-1.7-1.7-1.7h-3.1v-6.9h7.7c1.8 0 3.1.4 3.9 1.3.8.8 1.2 2.2 1.2 4.1v26.7c0 1.2.6 1.7 1.7 1.7h3.1v6.9h-7.6c-1.8 0-3.1-.4-3.9-1.3-.9-.8-1.3-2.2-1.3-4.1zm.1-43.4V2.9h7V11h-7zM448.9 48.2c0-2.1.4-3.9 1.3-5.5s2.1-2.9 3.6-3.8 3.1-1.7 4.8-2.3 3.5-1.1 5.6-1.4c2-.3 3.7-.5 5.1-.6s2.8-.1 4.3-.1h1.8v-.4c0-3.5-.7-6-2.1-7.5-1.4-1.5-3.7-2.2-6.9-2.2-1.5 0-3 .2-4.4.7-1.5.5-2.2 1.3-2.2 2.5v2.3h-8.1v-4c0-1.6.5-2.9 1.6-4s2.5-1.9 4.3-2.4c1.7-.5 3.3-.8 4.7-1s2.8-.3 4.1-.3c6.3 0 10.7 1.4 13.2 4.2s3.8 6.7 3.8 11.7v17.1c0 1.2.6 1.7 1.7 1.7h3.1v6.9h-7.3c-3.4 0-5.1-1.6-5.1-4.8l.2-2.5h-.2c-.1.2-.2.4-.4.7s-.6.9-1.3 1.9-1.5 1.9-2.4 2.6c-.9.8-2.1 1.5-3.7 2.1-1.5.6-3.2 1-5 1-3.8 0-7.1-1.1-9.8-3.3-3-2.4-4.3-5.4-4.3-9.3zm9.6-4.7c-1.1 1.1-1.6 2.5-1.6 4.3 0 1.7.7 3.2 2 4.3s3.2 1.7 5.6 1.7c3.1 0 5.7-1.3 7.7-3.9 2.1-2.6 3.1-5.4 3.1-8.5v-1.3h-2c-2 0-3.7.1-5.2.2s-3.2.4-5.1.9c-1.9.4-3.4 1.2-4.5 2.3zM494.7 45.1V25.9h-5.1V19h5.2V8.5h7.9V19h9.5v6.9h-9.5v18.3c0 1.9.3 3.5.9 4.8.6 1.3 1.4 2.2 2.3 2.8 1 .5 1.9.9 2.7 1.1.9.2 1.7.3 2.7.3l1.9-.2v6.9c-.7.1-1.6.2-2.7.2-1.2 0-2.4-.1-3.6-.2-1.2-.2-2.5-.6-4.1-1.2-1.5-.6-2.9-1.5-4-2.5s-2.1-2.5-2.9-4.4c-.8-1.9-1.2-4.1-1.2-6.7z"/></svg>
